:SAMPLES-PER-SECOND 30
:FULLY-SPECIFIED
:DEGREES
1104
root  38.6651 36.5754 15.3108 177.696 70.9797 178.862
RightUpLeg  -11.7255 -27.1866 -6.05816
RightLeg  72.3139 -0.866139 -4.03806
RightFoot  15.2958 -1.06448 4.82361
RightToes  0.000482159 0.542163 -0.142577
Spine  28.4482 2.37645 -3.48873
Spine1  11.3481 4.69882 -10.2213
HEad  -5.70678 7.75338 -9.38599
LeftShoulder1  9.75655 -16.5723 -42.1956
LeftArm  -16.4676 1.08167 -19.2704
LeftForeArm  14.9006 -62.2791 -20.5598
LeftHand  -0.25398 0.0180481 5.50724
RightShoulder  5.67294 10.8341 33.6196
RightArm  -5.41957 0.109844 30.1511
RightForeArm  -18.5649 64.3172 26.426
RightHand  -0.0156882 -5.92474 -4.90932
LeftUpLeg  -34.0246 28.2157 -20.7122
LeftLeg  25.8665 9.46223 5.30444
LeftFoot  -1.27251 -1.96251 22.0922
LeftToes  1.06246e-005 4.65854e-005 -8.18503e-006
1105
root  39.6391 36.8843 15.8266 179.362 66.6173 179.186
RightUpLeg  -21.8565 -25.7501 -4.26278
RightLeg  75.4638 -0.317147 -2.70723
RightFoot  13.2955 -0.868286 4.44952
RightToes  0.000482159 0.542163 -0.142577
Spine  32.8089 1.59408 -2.50712
Spine1  11.6169 4.17068 -10.5369
HEad  -8.40317 5.2447 -9.59122
LeftShoulder1  9.99985 -17.3466 -41.5924
LeftArm  -16.56 -4.8686 -20.7334
LeftForeArm  12.3342 -57.8971 -17.0816
LeftHand  -0.25398 0.0180481 5.50724
RightShoulder  5.68459 11.2294 32.6383
RightArm  -7.31745 5.21478 29.1764
RightForeArm  -20.6164 61.55 23.3199
RightHand  -0.0497584 -4.89022 -4.01038
LeftUpLeg  -33.3395 26.9268 -20.0398
LeftLeg  25.4667 6.13996 3.52275
LeftFoot  -1.22326 -1.95182 21.8479
LeftToes  1.06246e-005 4.65854e-005 -8.18503e-006
1106
root  40.6893 37.2727 16.3721 -178.243 61.9263 -179.833
RightUpLeg  -29.2782 -24.5161 -3.62264
RightLeg  72.7157 -0.13815 -1.5439
RightFoot  9.57395 -1.12155 6.40177
RightToes  0.000482159 0.542163 -0.142577
Spine  36.2837 0.674767 -1.71308
Spine1  11.9632 3.1086 -9.72778
HEad  -10.6009 3.64046 -9.23673
LeftShoulder1  10.1763 -17.8846 -41.2303
LeftArm  -17.6028 -10.3243 -22.2516
LeftForeArm  10.6446 -53.5359 -14.4308
LeftHand  -0.25398 0.0180481 5.50724
RightShoulder  5.77322 11.7177 31.9778
RightArm  -8.33912 11.3227 27.0104
RightForeArm  -22.946 58.2483 20.3785
RightHand  -0.063679 -3.9653 -2.99141
LeftUpLeg  -32.6113 23.9316 -18.1957
LeftLeg  25.0548 4.30167 2.53058
LeftFoot  -0.740613 -1.89456 20.2509
LeftToes  1.06246e-005 4.65854e-005 -8.18503e-006
1107
root  41.7601 37.6203 16.9511 -176.36 57.3266 -178.745
RightUpLeg  -33.8651 -23.3528 -4.01024
RightLeg  65.6417 -0.82363 -2.5173
RightFoot  8.32763 -0.984656 6.00681
RightToes  0.000482159 0.542163 -0.142577
Spine  39.8063 -0.15999 -0.85224
Spine1  12.0935 2.05733 -8.58066
HEad  -12.2502 2.42727 -8.80816
LeftShoulder1  10.3981 -18.3959 -41.1328
LeftArm  -19.1541 -15.3402 -23.5936
LeftForeArm  9.3563 -49.0699 -12.2614
LeftHand  -0.25398 0.0180481 5.50724
RightShoulder  5.81214 12.0397 31.438
RightArm  -9.25395 17.4614 24.4387
RightForeArm  -24.588 54.7822 17.8675
RightHand  -0.05868 -2.95859 -1.8105
LeftUpLeg  -31.7459 20.5012 -15.5542
LeftLeg  25.1548 3.55184 2.15862
LeftFoot  -0.297403 -1.70551 17.5095
LeftToes  1.06246e-005 4.65854e-005 -8.18503e-006
1108
root  42.8625 37.8915 17.557 -175.135 52.9601 -177.46
RightUpLeg  -35.0622 -21.9009 -5.25067
RightLeg  54.899 -3.6164 -5.79709
RightFoot  8.43993 -0.7564 4.68073
RightToes  0.000482159 0.542163 -0.142577
Spine  43.7165 -0.929627 0.461644
Spine1  11.8839 1.3154 -7.51122
HEad  -13.857 1.04729 -8.47571
LeftShoulder1  10.6737 -18.9531 -41.1726
LeftArm  -20.5941 -19.9436 -24.7801
LeftForeArm  8.27248 -44.7833 -10.5472
LeftHand  -0.25398 0.0180481 5.50724
RightShoulder  5.71104 12.1532 30.5102
RightArm  -10.8115 22.5557 22.2866
RightForeArm  -24.8917 51.7204 15.9791
RightHand  -0.032716 -1.84043 -0.619469
LeftUpLeg  -30.6825 17.7944 -12.569
LeftLeg  25.6776 2.17019 1.47381
LeftFoot  -0.211311 -1.56085 15.9204
LeftToes  1.06246e-005 4.65854e-005 -8.18503e-006
1109
root  44.0997 37.9769 18.2059 -175.121 48.1229 -177.655
RightUpLeg  -33.5355 -20.4019 -8.36375
RightLeg  41.6009 -6.98413 -6.98094
RightFoot  8.85585 -1.21897 7.14509
RightToes  0.000482159 0.542163 -0.142577
Spine  47.2153 -1.69404 1.05628
Spine1  11.6734 0.582924 -6.58674
HEad  -15.8985 -0.551302 -7.87382
LeftShoulder1  10.9661 -19.5701 -41.1617
LeftArm  -21.9976 -24.123 -25.9657
LeftForeArm  7.78428 -41.1828 -9.29074
LeftHand  -0.25398 0.0180481 5.50724
RightShoulder  5.56389 12.1919 29.4655
RightArm  -13.1131 26.4439 20.2697
RightForeArm  -24.0443 49.2859 14.6225
RightHand  0.0180752 -0.819615 0.64183
LeftUpLeg  -30.4199 15.1112 -10.5121
LeftLeg  27.233 0.188943 0.445739
LeftFoot  -0.760389 -1.39946 15.0597
LeftToes  1.06246e-005 4.65854e-005 -8.18503e-006
1110
root  45.5396 37.8864 18.8646 -175.634 42.7994 -179.565
RightUpLeg  -31.5476 -17.8101 -13.6322
RightLeg  28.4611 -5.70469 -3.68798
RightFoot  11.6069 -2.05268 10.4799
RightToes  0.000482159 0.542163 -0.142577
Spine  49.5147 -2.3539 0.771169
Spine1  11.6581 -0.259252 -5.86495
HEad  -18.2689 -2.51655 -6.50553
LeftShoulder1  11.2497 -20.2806 -40.938
LeftArm  -23.7644 -27.9755 -27.3083
LeftForeArm  8.50533 -38.5909 -8.41301
LeftHand  -0.25398 0.0180481 5.50724
RightShoulder  5.51569 12.242 29.0371
RightArm  -15.8952 29.4436 17.5295
RightForeArm  -22.6704 47.5119 13.686
RightHand  0.0887634 0.0384417 1.92677
LeftUpLeg  -31.3966 12.1858 -9.73335
LeftLeg  29.5602 -1.5816 -0.61685
LeftFoot  -1.6682 -1.11221 13.1939
LeftToes  1.06246e-005 4.65854e-005 -8.18503e-006
1111
root  47.0767 37.7339 19.4991 -175.742 37.8923 178.243
RightUpLeg  -30.3994 -11.3934 -20.5037
RightLeg  18.8491 1.1673 0.138983
RightFoot  16.0944 -2.67671 11.407
RightToes  0.000482159 0.542163 -0.142577
Spine  51.3564 -2.93768 0.627042
Spine1  11.5833 -0.957417 -5.50824
HEad  -20.7467 -4.51931 -4.63317
LeftShoulder1  11.4565 -20.9031 -40.5887
LeftArm  -25.828 -31.5189 -28.5684
LeftForeArm  10.2546 -37.1318 -7.86807
LeftHand  -0.25398 0.0180481 5.50724
RightShoulder  5.57633 12.3971 29.0771
RightArm  -18.8803 31.6868 14.3648
RightForeArm  -21.3499 46.4044 13.1117
RightHand  0.152077 0.846194 2.75382
LeftUpLeg  -32.8603 9.50999 -9.25427
LeftLeg  31.6716 -3.23025 -1.79101
LeftFoot  -2.42864 -0.830769 10.8186
LeftToes  1.06246e-005 4.65854e-005 -8.18503e-006
1112
root  48.6862 37.5398 20.1711 -175.732 33.48 176.441
RightUpLeg  -29.954 -2.60075 -27.196
RightLeg  14.9987 7.57201 1.63762
RightFoot  17.619 -3.01879 12.1345
RightToes  0.000482159 0.542163 -0.142577
Spine  53.8574 -3.568 0.581037
Spine1  11.0387 -1.50679 -5.61504
HEad  -23.1997 -6.11671 -2.84879
LeftShoulder1  11.5183 -21.195 -40.2945
LeftArm  -27.9503 -34.8039 -29.1773
LeftForeArm  12.0894 -36.5672 -7.59336
LeftHand  -0.25398 0.0180481 5.50724
RightShoulder  5.68496 12.7879 28.8976
RightArm  -22.0281 33.5045 11.7385
RightForeArm  -20.372 45.7338 12.7664
RightHand  0.18266 1.57339 2.88688
LeftUpLeg  -34.1749 6.9493 -8.2417
LeftLeg  33.6223 -5.0132 -3.2145
LeftFoot  -3.18543 -0.620883 8.95397
LeftToes  1.06246e-005 4.65854e-005 -8.18503e-006
1113
root  50.4015 37.3576 20.9174 -175.427 29.0034 175.173
RightUpLeg  -29.8807 1.95347 -30.4225
RightLeg  16.5234 7.75092 2.1323
RightFoot  14.9062 -3.38436 14.9482
RightToes  0.000482159 0.542163 -0.142577
Spine  56.4767 -4.23111 0.807519
Spine1  10.5714 -1.92105 -5.78223
HEad  -25.6688 -7.51813 -1.15363
LeftShoulder1  11.5518 -21.6457 -39.6303
LeftArm  -30.3783 -38.1869 -29.2431
LeftForeArm  13.6434 -36.1873 -7.39126
LeftHand  -0.25398 0.0180481 5.50724
RightShoulder  5.88119 13.2001 29.2122
RightArm  -25.9926 35.5236 8.765
RightForeArm  -19.5686 45.1353 12.4682
RightHand  0.205119 2.06619 2.98583
LeftUpLeg  -35.406 3.9204 -6.36397
LeftLeg  34.9378 -6.29534 -4.33417
LeftFoot  -3.777 -0.409176 6.52543
LeftToes  1.06246e-005 4.65854e-005 -8.18503e-006
1114
root  52.1966 37.2437 21.6973 -174.235 24.4377 174.03
RightUpLeg  -30.366 -1.12763 -28.9439
RightLeg  20.8167 4.03229 1.47692
RightFoot  9.79381 -3.34487 18.1488
RightToes  0.000482159 0.542163 -0.142577
Spine  58.0236 -4.77494 1.52611
Spine1  10.7871 -2.05626 -5.74494
HEad  -28.2024 -9.15436 0.749784
LeftShoulder1  11.7513 -22.7737 -38.4369
LeftArm  -33.2135 -41.8147 -29.0768
LeftForeArm  15.0567 -35.7141 -7.17257
LeftHand  -0.25398 0.0180481 5.50724
RightShoulder  6.23432 13.3243 31.0792
RightArm  -31.3447 37.8906 4.06805
RightForeArm  -18.4374 44.5056 12.1459
RightHand  0.267423 2.36371 3.77287
LeftUpLeg  -37.0291 0.146519 -3.94412
LeftLeg  34.6276 -6.72496 -4.60282
LeftFoot  -3.61192 -0.15414 2.64235
LeftToes  1.06246e-005 4.65854e-005 -8.18503e-006
